<?xml version="1.0" encoding="UTF-8" standalone="no"?>
<!DOCTYPE svg PUBLIC "-//W3C//DTD SVG 1.1//EN"
 "http://www.w3.org/Graphics/SVG/1.1/DTD/svg11.dtd">
<!-- Generated by graphviz version 2.40.1 (0)
 -->
<!-- Title: SINK Pages: 1 -->
<svg width="222pt" height="294pt"
 viewBox="0.00 0.00 222.00 294.00" xmlns="http://www.w3.org/2000/svg" xmlns:xlink="http://www.w3.org/1999/xlink">
<g id="graph0" class="graph" transform="scale(1 1) rotate(0) translate(4 290)">
<title>SINK</title>
<polygon fill="#ffffff" stroke="transparent" points="-4,4 -4,-290 218,-290 218,4 -4,4"/>
<!-- Inflow -->
<g id="node1" class="node">
<title>Inflow</title>
<ellipse fill="#ff0000" stroke="#000000" cx="139" cy="-268" rx="38.1938" ry="18"/>
<text text-anchor="middle" x="139" y="-264.3" font-family="Times-Roman" font-size="14.00" fill="#000000">Inflow</text>
</g>
<!-- Volume -->
<g id="node2" class="node">
<title>Volume</title>
<ellipse fill="none" stroke="#000000" cx="94" cy="-180.5" rx="44.393" ry="18"/>
<text text-anchor="middle" x="94" y="-176.8" font-family="Times-Roman" font-size="14.00" fill="#000000">Volume</text>
</g>
<!-- Inflow&#45;&gt;Volume -->
<g id="edge4" class="edge">
<title>Inflow&#45;&gt;Volume</title>
<path fill="none" stroke="#000000" d="M129.8936,-250.2931C123.5501,-237.9586 114.9736,-221.282 107.7948,-207.3233"/>
<polygon fill="#000000" stroke="#000000" points="110.7789,-205.4727 103.0929,-198.1806 104.5539,-208.6742 110.7789,-205.4727"/>
<text text-anchor="middle" x="128.5" y="-220.8" font-family="Times-Roman" font-size="14.00" fill="#000000">I+</text>
</g>
<!-- mag_i -->
<g id="node4" class="node">
<title>mag_i</title>
<polygon fill="none" stroke="#000000" points="156.5,-162.5 156.5,-198.5 211.5,-198.5 211.5,-162.5 156.5,-162.5"/>
<text text-anchor="middle" x="171" y="-176.8" font-family="Times-Roman" font-size="14.00" fill="#000000">+</text>
<polyline fill="none" stroke="#000000" points="185.5,-162.5 185.5,-198.5 "/>
<text text-anchor="middle" x="198.5" y="-176.8" font-family="Times-Roman" font-size="14.00" fill="#000000">0</text>
</g>
<!-- Inflow&#45;&gt;mag_i -->
<g id="edge1" class="edge">
<title>Inflow&#45;&gt;mag_i</title>
<path fill="none" stroke="#000000" d="M148.1064,-250.2931C155.811,-235.312 166.8099,-213.9253 174.5973,-198.7829"/>
</g>
<!-- Outflow -->
<g id="node3" class="node">
<title>Outflow</title>
<ellipse fill="none" stroke="#000000" cx="50" cy="-92.5" rx="46.2923" ry="18"/>
<text text-anchor="middle" x="50" y="-88.8" font-family="Times-Roman" font-size="14.00" fill="#000000">Outflow</text>
</g>
<!-- Volume&#45;&gt;Outflow -->
<g id="edge6" class="edge">
<title>Volume&#45;&gt;Outflow</title>
<path fill="none" stroke="#000000" d="M66.9814,-165.9878C59.0604,-160.2677 51.3608,-152.9079 47,-144 43.4953,-136.8409 42.7901,-128.435 43.3614,-120.5146"/>
<polygon fill="#000000" stroke="#000000" points="46.84,-120.9083 44.7197,-110.5278 39.9038,-119.9648 46.84,-120.9083"/>
<text text-anchor="middle" x="57.5" y="-132.8" font-family="Times-Roman" font-size="14.00" fill="#000000">P+</text>
</g>
<!-- mag_v -->
<g id="node5" class="node">
<title>mag_v</title>
<polygon fill="none" stroke="#000000" points="114,-74.5 114,-110.5 214,-110.5 214,-74.5 114,-74.5"/>
<text text-anchor="middle" x="136.5" y="-88.8" font-family="Times-Roman" font-size="14.00" fill="#000000">Max</text>
<polyline fill="none" stroke="#000000" points="159,-74.5 159,-110.5 "/>
<text text-anchor="middle" x="173.5" y="-88.8" font-family="Times-Roman" font-size="14.00" fill="#000000">+</text>
<polyline fill="none" stroke="#000000" points="188,-74.5 188,-110.5 "/>
<text text-anchor="middle" x="201" y="-88.8" font-family="Times-Roman" font-size="14.00" fill="#000000">0</text>
</g>
<!-- Volume&#45;&gt;mag_v -->
<g id="edge2" class="edge">
<title>Volume&#45;&gt;mag_v</title>
<path fill="none" stroke="#000000" d="M107.8297,-163.114C119.8626,-147.987 137.243,-126.1374 149.476,-110.7587"/>
</g>
<!-- Outflow&#45;&gt;Volume -->
<g id="edge5" class="edge">
<title>Outflow&#45;&gt;Volume</title>
<path fill="none" stroke="#000000" d="M61.2466,-110.0416C64.8609,-115.9637 68.7637,-122.6772 72,-129 75.9682,-136.7528 79.853,-145.3856 83.2269,-153.3334"/>
<polygon fill="#000000" stroke="#000000" points="79.9983,-154.6848 87.0603,-162.5829 86.465,-152.0048 79.9983,-154.6848"/>
<text text-anchor="middle" x="84" y="-132.8" font-family="Times-Roman" font-size="14.00" fill="#000000">I&#45;</text>
</g>
<!-- mag_o -->
<g id="node6" class="node">
<title>mag_o</title>
<polygon fill="none" stroke="#000000" points="0,-.5 0,-36.5 100,-36.5 100,-.5 0,-.5"/>
<text text-anchor="middle" x="22.5" y="-14.8" font-family="Times-Roman" font-size="14.00" fill="#000000">Max</text>
<polyline fill="none" stroke="#000000" points="45,-.5 45,-36.5 "/>
<text text-anchor="middle" x="59.5" y="-14.8" font-family="Times-Roman" font-size="14.00" fill="#000000">+</text>
<polyline fill="none" stroke="#000000" points="74,-.5 74,-36.5 "/>
<text text-anchor="middle" x="87" y="-14.8" font-family="Times-Roman" font-size="14.00" fill="#000000">0</text>
</g>
<!-- Outflow&#45;&gt;mag_o -->
<g id="edge3" class="edge">
<title>Outflow&#45;&gt;mag_o</title>
<path fill="none" stroke="#000000" d="M50,-74.2079C50,-62.7375 50,-48.012 50,-36.5817"/>
</g>
</g>
</svg>
