<?xml version="1.0" encoding="UTF-8" standalone="no"?>
<!DOCTYPE svg PUBLIC "-//W3C//DTD SVG 1.1//EN"
 "http://www.w3.org/Graphics/SVG/1.1/DTD/svg11.dtd">
<!-- Generated by graphviz version 2.40.1 (0)
 -->
<!-- Title: SINK Pages: 1 -->
<svg width="245pt" height="484pt"
 viewBox="0.00 0.00 244.96 484.00" xmlns="http://www.w3.org/2000/svg" xmlns:xlink="http://www.w3.org/1999/xlink">
<g id="graph0" class="graph" transform="scale(1 1) rotate(0) translate(4 480)">
<title>SINK</title>
<polygon fill="#ffffff" stroke="transparent" points="-4,4 -4,-480 240.9614,-480 240.9614,4 -4,4"/>
<!-- Inflow -->
<g id="node1" class="node">
<title>Inflow</title>
<ellipse fill="#ff0000" stroke="#000000" cx="118.9614" cy="-458" rx="38.1938" ry="18"/>
<text text-anchor="middle" x="118.9614" y="-454.3" font-family="Times-Roman" font-size="14.00" fill="#000000">Inflow</text>
</g>
<!-- Volume -->
<g id="node2" class="node">
<title>Volume</title>
<ellipse fill="none" stroke="#000000" cx="73.9614" cy="-370.5" rx="44.393" ry="18"/>
<text text-anchor="middle" x="73.9614" y="-366.8" font-family="Times-Roman" font-size="14.00" fill="#000000">Volume</text>
</g>
<!-- Inflow&#45;&gt;Volume -->
<g id="edge6" class="edge">
<title>Inflow&#45;&gt;Volume</title>
<path fill="none" stroke="#000000" d="M109.855,-440.2931C103.5115,-427.9586 94.935,-411.282 87.7562,-397.3233"/>
<polygon fill="#000000" stroke="#000000" points="90.7403,-395.4727 83.0543,-388.1806 84.5153,-398.6742 90.7403,-395.4727"/>
<text text-anchor="middle" x="108.4614" y="-410.8" font-family="Times-Roman" font-size="14.00" fill="#000000">I+</text>
</g>
<!-- mag_i -->
<g id="node6" class="node">
<title>mag_i</title>
<polygon fill="none" stroke="#000000" points="136.4614,-352.5 136.4614,-388.5 191.4614,-388.5 191.4614,-352.5 136.4614,-352.5"/>
<text text-anchor="middle" x="150.9614" y="-366.8" font-family="Times-Roman" font-size="14.00" fill="#000000">+</text>
<polyline fill="none" stroke="#000000" points="165.4614,-352.5 165.4614,-388.5 "/>
<text text-anchor="middle" x="178.4614" y="-366.8" font-family="Times-Roman" font-size="14.00" fill="#000000">0</text>
</g>
<!-- Inflow&#45;&gt;mag_i -->
<g id="edge1" class="edge">
<title>Inflow&#45;&gt;mag_i</title>
<path fill="none" stroke="#000000" d="M128.0678,-440.2931C135.7724,-425.312 146.7712,-403.9253 154.5587,-388.7829"/>
</g>
<!-- Height -->
<g id="node5" class="node">
<title>Height</title>
<ellipse fill="none" stroke="#000000" cx="73.9614" cy="-282.5" rx="40.0939" ry="18"/>
<text text-anchor="middle" x="73.9614" y="-278.8" font-family="Times-Roman" font-size="14.00" fill="#000000">Height</text>
</g>
<!-- Volume&#45;&gt;Height -->
<g id="edge8" class="edge">
<title>Volume&#45;&gt;Height</title>
<path fill="none" stroke="#000000" d="M73.9614,-352.2663C73.9614,-340.3492 73.9614,-324.5384 73.9614,-310.9817"/>
<polygon fill="#000000" stroke="#000000" points="77.4615,-310.7103 73.9614,-300.7103 70.4615,-310.7103 77.4615,-310.7103"/>
<text text-anchor="middle" x="84.4614" y="-322.8" font-family="Times-Roman" font-size="14.00" fill="#000000">P+</text>
</g>
<!-- mag_v -->
<g id="node7" class="node">
<title>mag_v</title>
<polygon fill="none" stroke="#000000" points="136.9614,-264.5 136.9614,-300.5 236.9614,-300.5 236.9614,-264.5 136.9614,-264.5"/>
<text text-anchor="middle" x="159.4614" y="-278.8" font-family="Times-Roman" font-size="14.00" fill="#000000">Max</text>
<polyline fill="none" stroke="#000000" points="181.9614,-264.5 181.9614,-300.5 "/>
<text text-anchor="middle" x="196.4614" y="-278.8" font-family="Times-Roman" font-size="14.00" fill="#000000">+</text>
<polyline fill="none" stroke="#000000" points="210.9614,-264.5 210.9614,-300.5 "/>
<text text-anchor="middle" x="223.9614" y="-278.8" font-family="Times-Roman" font-size="14.00" fill="#000000">0</text>
</g>
<!-- Volume&#45;&gt;mag_v -->
<g id="edge2" class="edge">
<title>Volume&#45;&gt;mag_v</title>
<path fill="none" stroke="#000000" d="M94.6873,-354.3594C114.1842,-339.1761 143.3358,-316.4739 163.6377,-300.6636"/>
</g>
<!-- Outflow -->
<g id="node3" class="node">
<title>Outflow</title>
<ellipse fill="none" stroke="#000000" cx="68.9614" cy="-106.5" rx="46.2923" ry="18"/>
<text text-anchor="middle" x="68.9614" y="-102.8" font-family="Times-Roman" font-size="14.00" fill="#000000">Outflow</text>
</g>
<!-- Outflow&#45;&gt;Volume -->
<g id="edge7" class="edge">
<title>Outflow&#45;&gt;Volume</title>
<path fill="none" stroke="#000000" d="M48.891,-123.0205C35.0145,-135.8265 17.7088,-154.9026 9.9614,-176 -9.3268,-228.5246 3.6125,-249.2787 24.9614,-301 31.5518,-316.9664 42.3532,-332.8555 52.1398,-345.4029"/>
<polygon fill="#000000" stroke="#000000" points="49.6841,-347.933 58.6889,-353.5156 55.1309,-343.5361 49.6841,-347.933"/>
<text text-anchor="middle" x="8.9614" y="-234.8" font-family="Times-Roman" font-size="14.00" fill="#000000">I&#45;</text>
</g>
<!-- mag_o -->
<g id="node8" class="node">
<title>mag_o</title>
<polygon fill="none" stroke="#000000" points="134.9614,-.5 134.9614,-36.5 234.9614,-36.5 234.9614,-.5 134.9614,-.5"/>
<text text-anchor="middle" x="157.4614" y="-14.8" font-family="Times-Roman" font-size="14.00" fill="#000000">Max</text>
<polyline fill="none" stroke="#000000" points="179.9614,-.5 179.9614,-36.5 "/>
<text text-anchor="middle" x="194.4614" y="-14.8" font-family="Times-Roman" font-size="14.00" fill="#000000">+</text>
<polyline fill="none" stroke="#000000" points="208.9614,-.5 208.9614,-36.5 "/>
<text text-anchor="middle" x="221.9614" y="-14.8" font-family="Times-Roman" font-size="14.00" fill="#000000">0</text>
</g>
<!-- Outflow&#45;&gt;mag_o -->
<g id="edge3" class="edge">
<title>Outflow&#45;&gt;mag_o</title>
<path fill="none" stroke="#000000" d="M103.8646,-94.5816C131.7398,-84.9337 166.5397,-72.5428 168.9614,-70 177.4846,-61.0508 181.4722,-47.6382 183.3354,-36.7444"/>
</g>
<!-- Pressure -->
<g id="node4" class="node">
<title>Pressure</title>
<ellipse fill="none" stroke="#000000" cx="68.9614" cy="-194.5" rx="50.0912" ry="18"/>
<text text-anchor="middle" x="68.9614" y="-190.8" font-family="Times-Roman" font-size="14.00" fill="#000000">Pressure</text>
</g>
<!-- Pressure&#45;&gt;Outflow -->
<g id="edge10" class="edge">
<title>Pressure&#45;&gt;Outflow</title>
<path fill="none" stroke="#000000" d="M68.9614,-176.2663C68.9614,-164.3492 68.9614,-148.5384 68.9614,-134.9817"/>
<polygon fill="#000000" stroke="#000000" points="72.4615,-134.7103 68.9614,-124.7103 65.4615,-134.7103 72.4615,-134.7103"/>
<text text-anchor="middle" x="79.4614" y="-146.8" font-family="Times-Roman" font-size="14.00" fill="#000000">P+</text>
</g>
<!-- mag_p -->
<g id="node9" class="node">
<title>mag_p</title>
<polygon fill="none" stroke="#000000" points="134.9614,-88.5 134.9614,-124.5 234.9614,-124.5 234.9614,-88.5 134.9614,-88.5"/>
<text text-anchor="middle" x="157.4614" y="-102.8" font-family="Times-Roman" font-size="14.00" fill="#000000">Max</text>
<polyline fill="none" stroke="#000000" points="179.9614,-88.5 179.9614,-124.5 "/>
<text text-anchor="middle" x="194.4614" y="-102.8" font-family="Times-Roman" font-size="14.00" fill="#000000">+</text>
<polyline fill="none" stroke="#000000" points="208.9614,-88.5 208.9614,-124.5 "/>
<text text-anchor="middle" x="221.9614" y="-102.8" font-family="Times-Roman" font-size="14.00" fill="#000000">0</text>
</g>
<!-- Pressure&#45;&gt;mag_p -->
<g id="edge4" class="edge">
<title>Pressure&#45;&gt;mag_p</title>
<path fill="none" stroke="#000000" d="M106.8513,-182.6439C133.5479,-173.9834 165.3361,-162.9281 169.9614,-158 178.3738,-149.0369 182.099,-135.6248 183.734,-124.7346"/>
</g>
<!-- Height&#45;&gt;Pressure -->
<g id="edge9" class="edge">
<title>Height&#45;&gt;Pressure</title>
<path fill="none" stroke="#000000" d="M72.9254,-264.2663C72.2483,-252.3492 71.3499,-236.5384 70.5797,-222.9817"/>
<polygon fill="#000000" stroke="#000000" points="74.0578,-222.4956 69.9961,-212.7103 67.0691,-222.8928 74.0578,-222.4956"/>
<text text-anchor="middle" x="82.4614" y="-234.8" font-family="Times-Roman" font-size="14.00" fill="#000000">P+</text>
</g>
<!-- mag_h -->
<g id="node10" class="node">
<title>mag_h</title>
<polygon fill="none" stroke="#000000" points="136.9614,-176.5 136.9614,-212.5 236.9614,-212.5 236.9614,-176.5 136.9614,-176.5"/>
<text text-anchor="middle" x="159.4614" y="-190.8" font-family="Times-Roman" font-size="14.00" fill="#000000">Max</text>
<polyline fill="none" stroke="#000000" points="181.9614,-176.5 181.9614,-212.5 "/>
<text text-anchor="middle" x="196.4614" y="-190.8" font-family="Times-Roman" font-size="14.00" fill="#000000">+</text>
<polyline fill="none" stroke="#000000" points="210.9614,-176.5 210.9614,-212.5 "/>
<text text-anchor="middle" x="223.9614" y="-190.8" font-family="Times-Roman" font-size="14.00" fill="#000000">0</text>
</g>
<!-- Height&#45;&gt;mag_h -->
<g id="edge5" class="edge">
<title>Height&#45;&gt;mag_h</title>
<path fill="none" stroke="#000000" d="M105.7708,-271.4235C133.457,-261.6631 169.5434,-248.6015 171.9614,-246 180.33,-236.996 184.0565,-223.5851 185.7032,-212.7058"/>
</g>
<!-- mag_v&#45;&gt;mag_h -->
<g id="edge11" class="edge">
<title>mag_v:f0&#45;&gt;mag_h:f0</title>
<path fill="none" stroke="#000000" d="M158.9614,-264.5C158.9614,-245.1806 158.9614,-237.9735 158.9614,-222.6284"/>
<polygon fill="#000000" stroke="#000000" points="162.4615,-222.5 158.9614,-212.5 155.4615,-222.5 162.4615,-222.5"/>
<text text-anchor="middle" x="163.9614" y="-234.8" font-family="Times-Roman" font-size="14.00" fill="#000000">V</text>
</g>
<!-- mag_v&#45;&gt;mag_h -->
<g id="edge12" class="edge">
<title>mag_v:f2&#45;&gt;mag_h:f2</title>
<path fill="none" stroke="#000000" d="M223.9614,-264.5C223.9614,-245.1806 223.9614,-237.9735 223.9614,-222.6284"/>
<polygon fill="#000000" stroke="#000000" points="227.4615,-222.5 223.9614,-212.5 220.4615,-222.5 227.4615,-222.5"/>
<text text-anchor="middle" x="228.9614" y="-234.8" font-family="Times-Roman" font-size="14.00" fill="#000000">V</text>
</g>
<!-- mag_p&#45;&gt;mag_o -->
<g id="edge15" class="edge">
<title>mag_p:f0&#45;&gt;mag_o:f0</title>
<path fill="none" stroke="#000000" d="M156.9614,-88.5C156.9614,-69.1806 156.9614,-61.9735 156.9614,-46.6284"/>
<polygon fill="#000000" stroke="#000000" points="160.4615,-46.5 156.9614,-36.5 153.4615,-46.5 160.4615,-46.5"/>
<text text-anchor="middle" x="161.9614" y="-58.8" font-family="Times-Roman" font-size="14.00" fill="#000000">V</text>
</g>
<!-- mag_p&#45;&gt;mag_o -->
<g id="edge16" class="edge">
<title>mag_p:f2&#45;&gt;mag_o:f2</title>
<path fill="none" stroke="#000000" d="M221.9614,-88.5C221.9614,-69.1806 221.9614,-61.9735 221.9614,-46.6284"/>
<polygon fill="#000000" stroke="#000000" points="225.4615,-46.5 221.9614,-36.5 218.4615,-46.5 225.4615,-46.5"/>
<text text-anchor="middle" x="226.9614" y="-58.8" font-family="Times-Roman" font-size="14.00" fill="#000000">V</text>
</g>
<!-- mag_h&#45;&gt;mag_p -->
<g id="edge13" class="edge">
<title>mag_h:f0&#45;&gt;mag_p:f0</title>
<path fill="none" stroke="#000000" d="M158.9614,-176.5C158.9614,-157.1663 157.5638,-149.9808 157.1052,-134.6332"/>
<polygon fill="#000000" stroke="#000000" points="160.6031,-134.4493 156.9614,-124.5 153.6038,-134.5487 160.6031,-134.4493"/>
<text text-anchor="middle" x="162.9614" y="-146.8" font-family="Times-Roman" font-size="14.00" fill="#000000">V</text>
</g>
<!-- mag_h&#45;&gt;mag_p -->
<g id="edge14" class="edge">
<title>mag_h:f2&#45;&gt;mag_p:f2</title>
<path fill="none" stroke="#000000" d="M223.9614,-176.5C223.9614,-157.1663 222.5638,-149.9808 222.1052,-134.6332"/>
<polygon fill="#000000" stroke="#000000" points="225.6031,-134.4493 221.9614,-124.5 218.6038,-134.5487 225.6031,-134.4493"/>
<text text-anchor="middle" x="227.9614" y="-146.8" font-family="Times-Roman" font-size="14.00" fill="#000000">V</text>
</g>
</g>
</svg>
