<?xml version="1.0" encoding="UTF-8" standalone="no"?>
<!DOCTYPE svg PUBLIC "-//W3C//DTD SVG 1.1//EN"
 "http://www.w3.org/Graphics/SVG/1.1/DTD/svg11.dtd">
<!-- Generated by graphviz version 2.40.1 (20161225.0304)
 -->
<!-- Title: SINK Pages: 1 -->
<svg width="196pt" height="308pt"
 viewBox="0.00 0.00 196.30 308.00" xmlns="http://www.w3.org/2000/svg" xmlns:xlink="http://www.w3.org/1999/xlink">
<g id="graph0" class="graph" transform="scale(1 1) rotate(0) translate(4 304)">
<title>SINK</title>
<polygon fill="#ffffff" stroke="transparent" points="-4,4 -4,-304 192.2964,-304 192.2964,4 -4,4"/>
<!-- Inflow -->
<g id="node1" class="node">
<title>Inflow</title>
<ellipse fill="#ff0000" stroke="#000000" cx="116.2964" cy="-282" rx="34.394" ry="18"/>
<text text-anchor="middle" x="116.2964" y="-278.3" font-family="Times,serif" font-size="14.00" fill="#000000">Inflow</text>
</g>
<!-- Volume -->
<g id="node2" class="node">
<title>Volume</title>
<ellipse fill="none" stroke="#000000" cx="73.2964" cy="-194.5" rx="39.7935" ry="18"/>
<text text-anchor="middle" x="73.2964" y="-190.8" font-family="Times,serif" font-size="14.00" fill="#000000">Volume</text>
</g>
<!-- Inflow&#45;&gt;Volume -->
<g id="edge4" class="edge">
<title>Inflow&#45;&gt;Volume</title>
<path fill="none" stroke="#000000" d="M107.5947,-264.2931C101.5332,-251.9586 93.3379,-235.282 86.4782,-221.3233"/>
<polygon fill="#000000" stroke="#000000" points="89.5369,-219.6117 81.9852,-212.1806 83.2545,-222.6991 89.5369,-219.6117"/>
<text text-anchor="middle" x="104.7964" y="-234.8" font-family="Times,serif" font-size="14.00" fill="#000000">I+</text>
</g>
<!-- mag_i -->
<g id="node4" class="node">
<title>mag_i</title>
<polygon fill="none" stroke="#000000" points="131.2964,-176.5 131.2964,-212.5 185.2964,-212.5 185.2964,-176.5 131.2964,-176.5"/>
<text text-anchor="middle" x="145.2964" y="-190.8" font-family="Times,serif" font-size="14.00" fill="#000000">+</text>
<polyline fill="none" stroke="#000000" points="159.2964,-176.5 159.2964,-212.5 "/>
<text text-anchor="middle" x="172.2964" y="-190.8" font-family="Times,serif" font-size="14.00" fill="#000000">0</text>
</g>
<!-- Inflow&#45;&gt;mag_i -->
<g id="edge1" class="edge">
<title>Inflow&#45;&gt;mag_i</title>
<path fill="none" stroke="#000000" d="M124.7958,-264.2931C131.9867,-249.312 142.2523,-227.9253 149.5206,-212.7829"/>
</g>
<!-- Outflow -->
<g id="node3" class="node">
<title>Outflow</title>
<ellipse fill="none" stroke="#000000" cx="40.2964" cy="-106.5" rx="40.0939" ry="18"/>
<text text-anchor="middle" x="40.2964" y="-102.8" font-family="Times,serif" font-size="14.00" fill="#000000">Outflow</text>
</g>
<!-- Volume&#45;&gt;Outflow -->
<g id="edge6" class="edge">
<title>Volume&#45;&gt;Outflow</title>
<path fill="none" stroke="#000000" d="M66.6184,-176.6919C62.0113,-164.4062 55.7979,-147.8372 50.5648,-133.8823"/>
<polygon fill="#000000" stroke="#000000" points="53.753,-132.416 46.9645,-124.2816 47.1987,-134.8739 53.753,-132.416"/>
<text text-anchor="middle" x="67.2964" y="-146.8" font-family="Times,serif" font-size="14.00" fill="#000000">P+</text>
</g>
<!-- mag_v -->
<g id="node5" class="node">
<title>mag_v</title>
<polygon fill="none" stroke="#000000" points="98.2964,-88.5 98.2964,-124.5 188.2964,-124.5 188.2964,-88.5 98.2964,-88.5"/>
<text text-anchor="middle" x="119.2964" y="-102.8" font-family="Times,serif" font-size="14.00" fill="#000000">Max</text>
<polyline fill="none" stroke="#000000" points="140.2964,-88.5 140.2964,-124.5 "/>
<text text-anchor="middle" x="152.7964" y="-102.8" font-family="Times,serif" font-size="14.00" fill="#000000">+</text>
<polyline fill="none" stroke="#000000" points="165.2964,-88.5 165.2964,-124.5 "/>
<text text-anchor="middle" x="176.7964" y="-102.8" font-family="Times,serif" font-size="14.00" fill="#000000">0</text>
</g>
<!-- Volume&#45;&gt;mag_v -->
<g id="edge2" class="edge">
<title>Volume&#45;&gt;mag_v</title>
<path fill="none" stroke="#000000" d="M86.7931,-177.5327C98.8707,-162.3495 116.5258,-140.1545 128.8773,-124.627"/>
</g>
<!-- Outflow&#45;&gt;Volume -->
<g id="edge5" class="edge">
<title>Outflow&#45;&gt;Volume</title>
<path fill="none" stroke="#000000" d="M37.6591,-124.7252C36.9201,-134.8532 37.226,-147.4932 41.2964,-158 42.986,-162.3613 45.4471,-166.5471 48.2656,-170.4285"/>
<polygon fill="#000000" stroke="#000000" points="45.7773,-172.9117 54.8463,-178.3893 51.1726,-168.4518 45.7773,-172.9117"/>
<text text-anchor="middle" x="46.2964" y="-146.8" font-family="Times,serif" font-size="14.00" fill="#000000">I&#45;</text>
</g>
<!-- mag_o -->
<g id="node6" class="node">
<title>mag_o</title>
<polygon fill="none" stroke="#000000" points="98.2964,-.5 98.2964,-36.5 188.2964,-36.5 188.2964,-.5 98.2964,-.5"/>
<text text-anchor="middle" x="119.2964" y="-14.8" font-family="Times,serif" font-size="14.00" fill="#000000">Max</text>
<polyline fill="none" stroke="#000000" points="140.2964,-.5 140.2964,-36.5 "/>
<text text-anchor="middle" x="152.7964" y="-14.8" font-family="Times,serif" font-size="14.00" fill="#000000">+</text>
<polyline fill="none" stroke="#000000" points="165.2964,-.5 165.2964,-36.5 "/>
<text text-anchor="middle" x="176.7964" y="-14.8" font-family="Times,serif" font-size="14.00" fill="#000000">0</text>
</g>
<!-- Outflow&#45;&gt;mag_o -->
<g id="edge3" class="edge">
<title>Outflow&#45;&gt;mag_o</title>
<path fill="none" stroke="#000000" d="M70.8982,-94.6912C95.8048,-84.9638 127.182,-72.3938 129.2964,-70 137.3932,-60.8335 140.8624,-47.4277 142.3234,-36.5915"/>
</g>
<!-- mag_v&#45;&gt;mag_o -->
<g id="edge7" class="edge">
<title>mag_v:f0&#45;&gt;mag_o:f0</title>
<path fill="none" stroke="#000000" d="M119.2964,-88.5C119.2964,-69.1806 119.2964,-61.9735 119.2964,-46.6284"/>
<polygon fill="#000000" stroke="#000000" points="122.7965,-46.5 119.2964,-36.5 115.7965,-46.5 122.7965,-46.5"/>
<text text-anchor="middle" x="124.2964" y="-58.8" font-family="Times,serif" font-size="14.00" fill="#000000">V</text>
</g>
<!-- mag_v&#45;&gt;mag_o -->
<g id="edge8" class="edge">
<title>mag_v:f2&#45;&gt;mag_o:f2</title>
<path fill="none" stroke="#000000" d="M177.2964,-88.5C177.2964,-69.1806 177.2964,-61.9735 177.2964,-46.6284"/>
<polygon fill="#000000" stroke="#000000" points="180.7965,-46.5 177.2964,-36.5 173.7965,-46.5 180.7965,-46.5"/>
<text text-anchor="middle" x="182.2964" y="-58.8" font-family="Times,serif" font-size="14.00" fill="#000000">V</text>
</g>
</g>
</svg>
